<?xml version="1.0" encoding="UTF-8" standalone="no"?>
<svg
   xmlns:dc="http://purl.org/dc/elements/1.1/"
   xmlns:cc="http://creativecommons.org/ns#"
   xmlns:rdf="http://www.w3.org/1999/02/22-rdf-syntax-ns#"
   xmlns:svg="http://www.w3.org/2000/svg"
   xmlns="http://www.w3.org/2000/svg"
   viewBox="0 0 700 343.66416"
   height="343.66415"
   width="700"
   version="1.1"
   id="svg2">
  <metadata
     id="metadata8">
    <rdf:RDF>
      <cc:Work
         rdf:about="">
        <dc:format>image/svg+xml</dc:format>
        <dc:type
           rdf:resource="http://purl.org/dc/dcmitype/StillImage" />
        <dc:title></dc:title>
      </cc:Work>
    </rdf:RDF>
  </metadata>
  <defs
     id="defs6" />
  <path
     id="path4377"
     d="m 647.68683,336.85511 c -27.31598,-7.53451 -24.69533,-5.86877 -41.41459,-26.32392 l -7.16192,-8.76222 0,-22.6164 0,-22.61639 3.42527,0.86944 c 1.88389,0.47819 8.46975,2.04315 14.63523,3.47769 l 11.20996,2.60824 0.62278,16.70333 0.62277,16.70331 16.81495,4.5595 c 9.24822,2.5077 18.35631,4.93782 20.24021,5.40025 l 3.42527,0.84077 0,-48.4643 0,-48.4643 -17.74911,-6.19104 c -9.762,-3.40506 -20.6539,-7.14197 -24.20424,-8.30422 -5.72667,-1.87471 -7.7296,-3.6074 -17.74911,-15.35445 l -11.29398,-13.24127 0,-60.67865 0,-60.67866 11.87024,-9.32158 11.87022,-9.32159 23.31661,6.1296 c 12.82413,3.37129 24.71784,6.45169 26.43047,6.84534 2.13984,0.49184 6.91268,5.7138 15.25801,16.69375 L 700,73.32537 l 0,21.78637 0,21.78636 -14.91115,-4.98807 -14.91114,-4.98806 -0.34686,-16.40582 -0.34686,-16.40583 -18.68328,-5.21178 c -10.2758,-2.86649 -19.39025,-5.24861 -20.25434,-5.2936 -1.24478,-0.0648 -1.50346,10.29853 -1.24555,49.89727 l 0.32551,49.97906 24.28826,8.3935 24.28826,8.3935 10.88506,12.93526 10.88508,12.93527 0.0134,61.3113 0.0136,61.31128 -11.16219,7.50544 c -6.13919,4.12798 -12.4448,7.45643 -14.01245,7.39654 -1.56766,-0.0599 -13.78,-3.12359 -27.13854,-6.80825 z M 12.53562,329.52879 0,316.95036 0,193.32007 0,69.68978 11.39128,55.70789 c 6.2652,-7.69005 11.74198,-14.38619 12.17063,-14.8803 0.93203,-1.07438 48.31484,-13.4003 51.56988,-13.41513 1.24687,-0.006 7.55247,3.67473 14.01246,8.17867 l 11.74543,8.18898 0,22.12114 0,22.12115 -12.7669,2.78283 c -7.0218,1.53056 -13.74778,3.06223 -14.94662,3.4037 -1.99639,0.56865 -2.17972,-0.74804 -2.17972,-15.65524 0,-12.41846 -0.37897,-16.27611 -1.59892,-16.27611 -0.87941,0 -9.89925,2.24199 -20.0441,4.98221 -10.14485,2.74021 -18.67356,4.9822 -18.95268,4.9822 -0.27913,0 -0.5075,52.7246 -0.5075,117.1658 0,110.99398 0.11481,117.1329 2.17971,116.54133 1.19884,-0.34343 10.02669,-2.65651 19.61744,-5.14014 9.59075,-2.48364 17.84039,-4.91308 18.33252,-5.39877 0.49214,-0.48569 1.05264,-8.14207 1.24555,-17.01419 l 0.35076,-16.13111 14.7839,-3.30798 14.78391,-3.30799 -0.51217,22.74309 -0.51216,22.7431 -7.03682,8.55166 c -3.87026,4.70341 -9.4518,11.21238 -12.40341,14.46437 l -5.3666,5.91271 -25.1423,6.02169 -25.14232,6.02166 -12.53563,-12.57843 z m 113.26509,-161.19642 0,-150.69671 3.42527,-0.6853 c 1.8839,-0.37692 19.67971,-2.96009 39.54626,-5.74039 19.86655,-2.78029 37.66237,-5.36347 39.54627,-5.74038 l 3.42526,-0.6853 0,16.9139 c 0,12.698 -0.38807,16.91521 -1.55694,16.91909 -0.85631,0.003 -12.48665,1.40177 -25.84519,3.1087 -13.35854,1.70693 -24.98888,3.10585 -25.8452,3.1087 -1.21951,0.004 -1.55694,10.80273 -1.55694,49.82724 0,47.21905 0.11758,49.82207 2.25085,49.82207 2.1618,0 26.52418,-4.22758 32.31321,-5.6073 2.79698,-0.66661 2.80249,-0.63603 2.80249,15.54799 0,8.91875 -0.14012,16.21828 -0.31139,16.22119 -0.17126,0.002 -8.12942,1.40416 -17.68483,3.11388 -9.55538,1.70972 -17.82273,3.10858 -18.37188,3.10858 -0.54914,0 -0.99845,22.98044 -0.99845,51.06763 0,34.44513 0.42063,51.06761 1.29227,51.06761 1.86835,0 42.17407,-4.85891 46.97286,-5.66264 l 4.04804,-0.678 0,17.2502 0,17.25019 -39.54626,5.31059 c -21.75044,2.92081 -40.52713,5.59062 -41.72598,5.93289 -2.06734,0.59021 -2.17972,-7.14705 -2.17972,-150.07443 z m 406.34665,145.16238 -26.48255,-3.71566 -11.81816,-12.76234 -11.81818,-12.76235 0,-128.29417 0,-128.29417 9.65302,-8.56633 c 5.30916,-4.71149 10.53224,-9.23911 11.60683,-10.0614 1.54181,-1.17978 7.64319,-0.74075 28.93463,2.08202 26.20707,3.47449 27.06655,3.67888 29.96911,7.12694 1.64354,1.95243 6.97928,8.27431 11.85717,14.04863 l 8.86892,10.49875 0,21.59793 0,21.59792 -2.80249,-0.63184 c -2.82147,-0.63612 -26.5149,-4.39782 -27.70011,-4.39782 -0.34991,0 -0.63619,-7.56673 -0.63619,-16.81495 0,-12.60632 -0.38968,-16.82211 -1.55694,-16.84356 -0.85631,-0.0157 -8.84342,-1.12387 -17.74911,-2.46249 -8.90569,-1.33862 -17.17305,-2.44673 -18.37189,-2.46248 -2.06067,-0.0271 -2.17971,6.36617 -2.17971,117.05323 0,64.39503 0.45451,117.08186 1.01002,117.08186 0.55552,0 9.06897,1.121 18.9188,2.4911 9.84984,1.37011 18.3633,2.49111 18.91881,2.49111 0.5555,0 1.01002,-7.56673 1.01002,-16.81495 0,-12.6155 0.38883,-16.81781 1.55694,-16.82638 0.85632,-0.006 7.86255,1.17548 15.56939,2.62614 l 14.01246,2.63754 -0.002,22.5963 -0.003,22.59629 -10.19109,8.09609 c -5.60509,4.45284 -11.06874,8.70552 -12.14148,9.4504 -1.44373,1.00249 -8.82995,0.38907 -28.43293,-2.36136 z M 236.6548,153.88206 l 0,-150.03252 4.04805,-0.63093 c 2.22642,-0.34701 8.95239,-0.98323 14.94662,-1.4138 l 10.89857,-0.78288 0,133.9303 0,133.93031 4.04805,-0.49493 c 2.22641,-0.2722 13.99689,-0.79914 26.15658,-1.17094 l 22.10854,-0.67603 0,17.2029 0,17.20289 -37.05516,1.5043 c -20.38034,0.82737 -38.87678,1.49519 -41.1032,1.48408 l -4.04805,-0.0202 0,-150.03254 z m 196.48577,149.11209 -7.16192,-0.44942 0,-151.0853 0,-151.08529 9.65302,0.4815 c 5.30916,0.26482 12.03515,0.77549 14.94662,1.1348 l 5.2936,0.65331 0,150.63542 0,150.63543 -7.7847,-0.2355 c -4.28158,-0.12954 -11.00756,-0.43777 -14.94662,-0.68495 z m -89.36833,-136.71301 0,-133.8968 -16.81494,0 -16.81495,0 0,-16.19217 0,-16.19217 47.33096,0 47.33096,0 0,16.19217 0,16.19217 -15.56939,0 -15.5694,0 0,133.8968 0,133.89681 -14.94662,0 -14.94662,0 0,-133.89681 z"
     style="fill:#018248" />
</svg>
